<svg xmlns="http://www.w3.org/2000/svg" width="198" height="198" viewBox="0 0 197.65 197.55">
  <defs>
    <style>
      .cls-1 {
        fill: #FFEFD4;
      }

      .cls-2 {
        fill: #FFB737;
        stroke: #FFB737;
        stroke-width: 0.2px;
      }

      .cls-2 {
        fill-rule: evenodd;
      }

    </style>
  </defs>
  <circle id="bg" class="cls-1" cx="99.84" cy="98.81" r="96.5" />
  <path id="line" class="cls-2" d="M2381.71,2274.61a0.671,0.671,0,0,0-.67.79,0.691,0.691,0,0,0,.77.72l4.35-.28a0.686,0.686,0,0,0,.67-0.81,0.673,0.673,0,0,0-.77-0.7Zm-12.27-.24a0.676,0.676,0,0,0-.77.7,0.7,0.7,0,0,0,.68.81l4.35,0.26a0.757,0.757,0,0,0,.09-1.51Zm-12.13-1.77a0.683,0.683,0,0,0-.86.6,0.706,0.706,0,0,0,.58.89l4.28,0.81a0.7,0.7,0,0,0,.85-0.63,0.686,0.686,0,0,0-.57-0.87Zm-11.85-3.3a0.68,0.68,0,0,0-.92.49,0.693,0.693,0,0,0,.46.95l4.14,1.34a0.7,0.7,0,0,0,.93-0.51,0.678,0.678,0,0,0-.46-0.93Zm-11.33-4.79a0.679,0.679,0,0,0-.98.37,0.693,0.693,0,0,0,.33,1l3.94,1.86a0.7,0.7,0,0,0,.99-0.39,0.68,0.68,0,0,0-.34-0.98Zm-10.6-6.16a0.682,0.682,0,0,0-1.02.24,0.7,0.7,0,0,0,.2,1.04l3.67,2.34a0.7,0.7,0,0,0,1.03-.26,0.685,0.685,0,0,0-.21-1.02Zm-9.77-7.47a0.682,0.682,0,0,0-1.04.12,0.7,0.7,0,0,0,.07,1.05l3.35,2.78a0.7,0.7,0,0,0,1.05-.12,0.688,0.688,0,0,0-.08-1.04Zm-8.74-8.61a0.67,0.67,0,0,0-1.04-.02,0.7,0.7,0,0,0-.07,1.06l2.98,3.18a0.7,0.7,0,0,0,1.06,0,0.686,0.686,0,0,0,.05-1.04Zm-7.59-9.65a0.672,0.672,0,0,0-1.03-.15,0.69,0.69,0,0,0-.2,1.04l2.55,3.53a0.693,0.693,0,0,0,1.05.13,0.68,0.68,0,0,0,.18-1.02Zm-6.33-10.55a0.686,0.686,0,0,0-1.01-.28,0.707,0.707,0,0,0-.33,1.01l2.09,3.83a0.7,0.7,0,0,0,1.03.26,0.682,0.682,0,0,0,.31-0.99Zm-4.94-11.24a0.682,0.682,0,0,0-.96-0.41,0.7,0.7,0,0,0-.45.96l1.59,4.06a0.689,0.689,0,0,0,.98.39,0.68,0.68,0,0,0,.43-0.94Zm-3.46-11.78a0.691,0.691,0,0,0-.91-0.53,0.709,0.709,0,0,0-.57.9l1.06,4.22a0.693,0.693,0,0,0,.92.52,0.684,0.684,0,0,0,.55-0.89Zm-1.95-12.14a0.686,0.686,0,0,0-.83-0.64,0.712,0.712,0,0,0-.68.82l0.51,4.32a0.7,0.7,0,0,0,.85.63,0.685,0.685,0,0,0,.66-0.81Zm-0.39-12.35a0.671,0.671,0,0,0-.74-0.73,0.694,0.694,0,0,0-.78.71l-0.07,4.36a0.686,0.686,0,0,0,.76.73,0.678,0.678,0,0,0,.76-0.71Zm1.11-12.16a0.675,0.675,0,0,0-.65-0.81,0.694,0.694,0,0,0-.86.61l-0.57,4.32a0.688,0.688,0,0,0,.66.82,0.68,0.68,0,0,0,.84-0.62Zm2.65-11.98a0.669,0.669,0,0,0-.53-0.89,0.71,0.71,0,0,0-.94.5l-1.11,4.21a0.688,0.688,0,0,0,.55.9,0.678,0.678,0,0,0,.91-0.51Zm4.17-11.57a0.675,0.675,0,0,0-.42-0.95,0.7,0.7,0,0,0-.99.38l-1.64,4.03a0.7,0.7,0,0,0,.44.97,0.69,0.69,0,0,0,.97-0.39Zm5.6-10.95a0.673,0.673,0,0,0-.29-1,0.7,0.7,0,0,0-1.03.25l-2.14,3.79a0.689,0.689,0,0,0,.31,1.01,0.682,0.682,0,0,0,1.01-.26Zm6.93-10.14a0.674,0.674,0,0,0-.16-1.03,0.7,0.7,0,0,0-1.05.12l-2.6,3.49a0.691,0.691,0,0,0,.18,1.04,0.681,0.681,0,0,0,1.03-.13Zm8.15-9.19a0.688,0.688,0,0,0-.03-1.05,0.709,0.709,0,0,0-1.06-.01l-3.02,3.14a0.761,0.761,0,0,0,1.09,1.06Zm9.23-8.09a0.678,0.678,0,0,0,.09-1.04,0.7,0.7,0,0,0-1.05-.14l-3.39,2.73a0.708,0.708,0,0,0-.08,1.06,0.693,0.693,0,0,0,1.04.12Zm10.17-6.86a0.677,0.677,0,0,0,.22-1.02,0.7,0.7,0,0,0-1.02-.28l-3.7,2.29a0.694,0.694,0,0,0-.22,1.04,0.683,0.683,0,0,0,1.01.25Zm10.99-5.55a0.676,0.676,0,0,0,.35-0.98,0.7,0.7,0,0,0-.98-0.4l-3.97,1.8a0.693,0.693,0,0,0-.34,1,0.682,0.682,0,0,0,.97.38Zm11.58-4.09a0.677,0.677,0,0,0,.47-0.93,0.688,0.688,0,0,0-.92-0.52l-4.16,1.28a0.76,0.76,0,0,0,.45,1.45Zm12-2.6a0.673,0.673,0,0,0,.59-0.86,0.7,0.7,0,0,0-.85-0.63l-4.29.74a0.762,0.762,0,0,0,.26,1.5Zm12.24-1.05a0.677,0.677,0,0,0,.69-0.78,0.7,0.7,0,0,0-.76-0.74l-4.35.2a0.762,0.762,0,0,0,.07,1.52Zm12.27,0.47a0.665,0.665,0,0,0,.78-0.68,0.7,0.7,0,0,0-.66-0.83l-4.34-.34a0.7,0.7,0,0,0-.79.71,0.685,0.685,0,0,0,.67.8Zm12.13,2.02a0.669,0.669,0,0,0,.86-0.58,0.687,0.687,0,0,0-.55-0.9l-4.26-.89a0.757,0.757,0,0,0-.31,1.48Zm11.74,3.53a0.692,0.692,0,0,0,.94-0.47,0.708,0.708,0,0,0-.44-0.97l-4.12-1.42a0.693,0.693,0,0,0-.94.49,0.684,0.684,0,0,0,.45.94Zm11.24,5a0.668,0.668,0,0,0,.98-0.35,0.692,0.692,0,0,0-.31-1.01l-3.9-1.93a0.685,0.685,0,0,0-.99.37,0.677,0.677,0,0,0,.32.99Zm10.51,6.4a0.685,0.685,0,0,0,1.02-.22,0.7,0.7,0,0,0-.18-1.05l-3.62-2.41a0.689,0.689,0,0,0-1.03.24,0.672,0.672,0,0,0,.19,1.02Zm9.59,7.63a0.68,0.68,0,0,0,1.04-.1,0.7,0.7,0,0,0-.04-1.05l-3.3-2.85a0.683,0.683,0,0,0-1.05.11,0.676,0.676,0,0,0,.06,1.04Zm8.59,8.8a0.67,0.67,0,0,0,1.04.04,0.686,0.686,0,0,0,.09-1.05l-2.91-3.24a0.7,0.7,0,0,0-1.06-.03,0.685,0.685,0,0,0-.07,1.04Zm7.4,9.79a0.674,0.674,0,0,0,1.03.17,0.7,0.7,0,0,0,.22-1.03l-2.49-3.58a0.685,0.685,0,0,0-1.04-.16,0.675,0.675,0,0,0-.2,1.02Zm6.11,10.66a0.682,0.682,0,0,0,1,.3,0.7,0.7,0,0,0,.35-1l-2.01-3.86a0.692,0.692,0,0,0-1.02-.29,0.683,0.683,0,0,0-.33.99Zm4.72,11.36a0.676,0.676,0,0,0,.95.42,0.693,0.693,0,0,0,.47-0.94l-1.5-4.09a0.762,0.762,0,0,0-1.43.52Zm3.23,11.84a0.676,0.676,0,0,0,.89.54,0.7,0.7,0,0,0,.59-0.88l-0.98-4.25a0.76,0.76,0,0,0-1.48.34Zm1.71,12.18a0.673,0.673,0,0,0,.81.65,0.713,0.713,0,0,0,.7-0.8l-0.43-4.34a0.7,0.7,0,0,0-.84-0.65,0.692,0.692,0,0,0-.67.8Zm0.16,12.25a0.688,0.688,0,0,0,.73.75,0.7,0.7,0,0,0,.79-0.71l0.11-4.35a0.689,0.689,0,0,0-.75-0.75,0.678,0.678,0,0,0-.76.71Zm-1.36,12.22a0.673,0.673,0,0,0,.63.83,0.7,0.7,0,0,0,.87-0.6l0.66-4.31a0.7,0.7,0,0,0-.65-0.83,0.688,0.688,0,0,0-.85.61Zm-2.89,11.93a0.668,0.668,0,0,0,.52.9,0.692,0.692,0,0,0,.94-0.48l1.2-4.19a0.7,0.7,0,0,0-.54-0.91,0.686,0.686,0,0,0-.92.49Zm-4.4,11.49a0.683,0.683,0,0,0,.4.97,0.694,0.694,0,0,0,.99-0.37l1.72-4a0.758,0.758,0,0,0-1.39-.6Zm-5.81,10.83a0.664,0.664,0,0,0,.27,1,0.7,0.7,0,0,0,1.03-.23l2.22-3.75a0.7,0.7,0,0,0-.3-1.02,0.687,0.687,0,0,0-1.01.25Zm-7.13,10a0.673,0.673,0,0,0,.15,1.03,0.689,0.689,0,0,0,1.05-.1l2.67-3.44a0.76,0.76,0,0,0-1.2-.93Zm-8.32,9.03a0.677,0.677,0,0,0,.02,1.04,0.7,0.7,0,0,0,1.06.03l3.08-3.08a0.7,0.7,0,0,0-.03-1.06,0.678,0.678,0,0,0-1.04-.01Zm-9.38,7.9a0.68,0.68,0,0,0-.11,1.04,0.689,0.689,0,0,0,1.04.16l3.44-2.67a0.76,0.76,0,0,0-.93-1.2Zm-10.33,6.68a0.679,0.679,0,0,0-.24,1.02,0.694,0.694,0,0,0,1.01.29l3.76-2.21a0.709,0.709,0,0,0,.23-1.04,0.684,0.684,0,0,0-1-.27Zm-11.07,5.32a0.671,0.671,0,0,0-.37.97,0.7,0.7,0,0,0,.97.42l4-1.72a0.7,0.7,0,0,0,.36-1,0.686,0.686,0,0,0-.96-0.4Zm-11.67,3.87a0.674,0.674,0,0,0-.49.92,0.706,0.706,0,0,0,.91.54l4.19-1.2a0.7,0.7,0,0,0,.48-0.94,0.677,0.677,0,0,0-.9-0.52Zm-12.04,2.35a0.678,0.678,0,0,0-.61.85,0.7,0.7,0,0,0,.84.65l4.3-.66a0.76,0.76,0,0,0-.23-1.5Z" transform="translate(-2278.66 -2078.69)" />
  <path id="PDF" class="cls-2" d="M2352.1,2224.74h2.82a7.069,7.069,0,0,0,3.52-.64,4.548,4.548,0,0,0,2.42-4.33,4.729,4.729,0,0,0-2.31-4.29,6.789,6.789,0,0,0-3.52-.69h-2.4c-1.96,0-1.96,1.48-1.96,2.18v14.68a0.655,0.655,0,0,0,.73.7,0.663,0.663,0,0,0,.7-0.7v-6.91Zm0-1.3v-6.47a0.728,0.728,0,0,1,.89-0.88h1.71c1.74,0,4.73,0,4.73,3.72,0,3.63-3.1,3.63-4.73,3.63h-2.6Zm22.47-8.65c-1.96,0-1.96,1.48-1.96,2.18v12.85a1.818,1.818,0,0,0,1.96,2.18h4.27a9.964,9.964,0,0,0,5.94-1.43c3.14-2.16,3.19-6.21,3.19-7.17,0-2.12-.6-6.41-4.67-7.95a12.091,12.091,0,0,0-4.42-.66h-4.31Zm-0.53,2.18a0.722,0.722,0,0,1,.88-0.88h3.89c1.87,0,7.73,0,7.73,7.33,0,0.99-.14,4.31-2.62,6.05-1.08.77-2.44,1.23-5.13,1.23h-3.87a0.712,0.712,0,0,1-.88-0.86v-12.87Zm27.1,5.57v-5.57a0.725,0.725,0,0,1,.88-0.88h7.35a0.6,0.6,0,0,0,.64-0.64,0.62,0.62,0,0,0-.64-0.66h-7.7c-1.96,0-1.96,1.48-1.96,2.18v14.68a0.655,0.655,0,0,0,.73.7,0.663,0.663,0,0,0,.7-0.7v-7.81h7.48a0.594,0.594,0,0,0,.62-0.66,0.584,0.584,0,0,0-.62-0.64h-7.48Z" transform="translate(-2278.66 -2078.69)" />
  <path id="illust" class="cls-2" d="M2349.59,2137.3q-0.75,15.9-.53,31.82,0.105,8.04.49,16.07,0.18,3.915.45,7.84c0.15,2.19-.14,5.18.62,7.25a2.4,2.4,0,0,0,2.34,1.65c2.41,0.3,5.3-.4,7.72-0.56,5.32-.36,10.64-0.59,15.97-0.73,10.71-.27,21.42-0.18,32.12-0.25,0.3,0,1.23-.18,1.22-0.59-0.08-15.64-.44-31.34-1.41-46.95-0.08-1.25.14-3.31-.43-4.48-0.72-1.45-3.2-2.73-4.44-3.65-2.8-2.1-5.66-4.12-8.56-6.09-1.63-1.1-3.65-2.91-5.6-3.43-2.07-.56-5.05.16-7.21,0.23-3.49.12-6.98,0.15-10.47,0.18-7.09.06-14.17,0.11-21.25,0.51-0.49.03-1.86,0.8-.73,0.74,12.03-.69,24.09-0.31,36.12-0.87a5.182,5.182,0,0,1,3.66.72c1.16,0.69,2.28,1.45,3.4,2.2,2.83,1.9,5.62,3.88,8.36,5.9,1.36,1,4.15,2.42,4.97,3.96,0.54,1.01.36,2.8,0.43,3.91,0.46,7.03.67,14.08,0.89,21.13,0.28,8.81.51,17.63,0.56,26.45,0.41-.2.82-0.4,1.22-0.6-10.01.06-20.03-.01-30.05,0.2-4.92.11-9.84,0.28-14.75,0.57q-3.9.225-7.77,0.53c-1.62.13-3.89,0.82-4.6-1.13a12.416,12.416,0,0,1-.32-3.17,477.465,477.465,0,0,1-.7-59.81c0.01-.3-1.69-0.08-1.72.45h0Zm38.2-1.57c0.34,3.66.34,7.36,0.5,11.03,0.06,1.32-.4,4.42,1,4.97a7.189,7.189,0,0,0,2.6-.19c1.59-.17,3.19-0.37,4.78-0.58,3.71-.49,7.44-0.99,11.11-1.74,0.68-.13,1.51-0.88.31-0.64-3.09.63-6.23,1.07-9.36,1.5-1.67.23-3.35,0.45-5.03,0.64-0.53.06-2.74,0.63-3.18,0.3-0.82-.61-0.53-4.96-0.57-6.07-0.12-3.22-.14-6.46-0.45-9.68-0.03-.33-1.75-0.01-1.71.46h0Zm-25.99,30.69a194.314,194.314,0,0,0,21.17-.98c0.88-.09,1.38-1.18.2-1.06a188.893,188.893,0,0,1-20.73.97c-0.72,0-1.8,1.06-.64,1.07h0Zm-0.59,10.51q9.81-.63,19.62-1.23c2.75-.16,5.5-0.32,8.25-0.46,0.92-.04,1.83-0.09,2.74-0.12a5.242,5.242,0,0,0,.97-0.02,7.6,7.6,0,0,0,.98-0.51c-1.14.41-.07,0.68,0.61,0.44a1.427,1.427,0,0,0,.55-0.31c0.05-.06.13-0.19,0.03-0.25-0.67-.4-2.09-0.09-2.79-0.07-2.8.11-5.6,0.28-8.4,0.44-7.28.42-14.55,0.9-21.83,1.36-0.48.03-1.85,0.81-.73,0.73h0Zm1.76,10.74q16.335-.8,32.67-1.6c0.91-.05,1.37-1.15.19-1.09q-16.335.8-32.67,1.6c-0.91.05-1.37,1.15-.19,1.09h0Z" transform="translate(-2278.66 -2078.69)" />
</svg>
