<svg xmlns="http://www.w3.org/2000/svg" width="200" height="200" viewBox="0 0 200 200">
  <defs>
    <style>
      .cls-1 {
        fill: #d4d4d4;
      }

      .cls-2 {
        fill: #fff;
        fill-rule: evenodd;
      }
    </style>
  </defs>
  <rect id="bg" class="cls-1" width="200" height="200" />
  <path id="NO_IMAGE" data-name="NO IMAGE" class="cls-2" d="M51.2,109V95.856H48.858v7.6l0.252,2.935-0.99-2.16-5.186-8.373H40.341V109h2.341v-7.6L42.43,98.467l0.99,2.161L48.606,109H51.2Zm19.23-6.572c0-4.249-2.719-7-6.59-7s-6.572,2.755-6.572,7c0,4.231,2.683,7,6.572,7S70.428,106.659,70.428,102.428Zm-2.557,0c0,2.989-1.657,4.825-4.033,4.825-2.269,0-4.015-1.728-4.015-4.825,0-3.115,1.765-4.807,4.015-4.807C66.2,97.621,67.871,99.439,67.871,102.428ZM88.641,109V95.856H86.21V109h2.431Zm19.4,0V95.856h-3.8l-2.34,9.075-0.306,2.088-0.306-2.088-2.323-9.075H95.147V109h2.233V97.459l2.9,11.541h2.629l2.9-11.541V109h2.233Zm18.415,0-5.041-13.144h-2.755L113.616,109H116.3l0.972-2.827H122.8L123.771,109h2.683Zm-4.357-4.861h-4.106l1.747-5.06,0.306-1.152,0.288,1.152ZM143.584,109v-7.058h-5.761V104H141.3a3.361,3.361,0,0,1-1.027,2.286,3.9,3.9,0,0,1-2.718,1.063c-1.729,0-4.07-1.045-4.07-4.97,0-2.593,1.315-4.807,4.034-4.807a3.086,3.086,0,0,1,3.277,2.377h2.592a4.009,4.009,0,0,0-1.224-2.845,6.532,6.532,0,0,0-4.627-1.674c-5.528,0-6.662,4.717-6.662,7.184,0,3.691,2.25,6.824,6.212,6.824,2.016,0,3.835-.792,4.519-2.719l0.054,0.9L141.874,109h1.71Zm16.691,0v-2.053h-7.814v-3.889h6.95v-1.89h-6.95V97.909h7.526V95.856h-9.939V109h10.227Z" />
</svg>